<?xml version="1.0" encoding="UTF-8" standalone="no"?>
<!DOCTYPE svg PUBLIC "-//W3C//DTD SVG 1.1//EN" "http://www.w3.org/Graphics/SVG/1.1/DTD/svg11.dtd">
<svg width="100%" height="100%" viewBox="0 0 340 340" version="1.1" xmlns="http://www.w3.org/2000/svg" xmlns:xlink="http://www.w3.org/1999/xlink" xml:space="preserve" xmlns:serif="http://www.serif.com/" style="fill-rule:evenodd;clip-rule:evenodd;stroke-linejoin:round;stroke-miterlimit:2;">
    <g transform="matrix(1.30761,0,0,1.30727,-42.4428,-26.0908)">
        <circle cx="162.5" cy="150" r="130.042" style="fill:rgb(243,199,54);"/>
        <clipPath id="_clip1">
            <circle cx="162.5" cy="150" r="130.042"/>
        </clipPath>
        <g clip-path="url(#_clip1)">
            <g id="Layer-1" serif:id="Layer 1" transform="matrix(0.764753,0,0,0.764952,38.2277,10.0295)">
                <rect id="rect2162" x="0" y="-0" width="325" height="300" style="fill:rgb(243,199,54);"/>
                <g id="g2293" transform="matrix(1,0,0,1,-24.9922,-84.9218)">
                    <path id="path2280" d="M260.521,236.461C232.508,264.846 228.887,273.121 206.498,288.699C190.456,299.862 180.822,316.041 178.56,316.128C176.297,316.215 178.22,310.452 169.519,309.843C160.818,309.234 156.337,324.243 154.814,324.025C153.285,323.807 154.466,319.762 155.162,307.493C155.858,295.225 178.133,281.129 178.22,274.778C178.277,270.601 169.78,268.513 165.516,265.12C161.253,261.726 155.684,257.898 152.117,257.898C148.549,257.898 140.111,271.032 138.456,274.343C137.412,276.431 139.487,286.611 138.195,299.837C137.729,304.606 143.268,302.769 145.243,313.758C146.604,321.338 142.719,329.42 139.761,332.291C136.803,335.163 135.697,324.325 133.322,317.761C130.364,309.582 125.839,315.324 123.316,313.149C118.564,309.052 117.946,298.321 113.919,283.218C111.135,272.776 113.223,271.384 115.311,268.252C124.592,254.33 130.277,242.497 143.851,223.355C157.293,204.398 201.054,216.707 235.512,193.2L187.5,109.922L50.008,348.113L324.992,348.113L260.521,236.461Z" style="fill-rule:nonzero;"/>
                    <path id="path2229" d="M146.113,305.666C148.918,305.51 156.554,298.966 152.117,289.83C147.679,280.694 147.157,279.998 150.637,272.951C154.118,265.903 156.467,265.816 154.901,263.64C153.335,261.465 150.289,265.81 146.896,270.166C143.524,274.495 141.588,274.256 143.154,282.348C144.721,290.439 142.458,293.224 142.371,296.704C142.284,300.185 144.306,305.767 146.113,305.666Z" style="fill:rgb(243,199,54);"/>
                    <path id="path2231" d="M161.253,268.252C158.555,264.772 152.465,274.256 152.552,280.955C152.639,287.655 155.684,292.789 157.424,292.702C159.164,292.615 160.818,287.916 158.816,281.042C156.815,274.169 157.946,274.778 159.686,273.212C161.427,271.645 163.08,270.253 161.253,268.252Z" style="fill:rgb(243,199,54);"/>
                    <path id="path2233" d="M161.688,278.258C161.688,272.428 164.298,270.166 165.951,270.253C167.604,270.34 168.127,271.384 168.214,272.951C168.301,274.517 166.038,273.995 166.038,277.04C166.038,280.085 167.517,279.215 167.604,281.826C167.691,284.436 165.429,285.654 164.472,285.567C163.515,285.48 161.775,283.392 161.688,278.258Z" style="fill:rgb(243,199,54);"/>
                    <path id="path2259" d="M126.677,325.567C131.389,332.777 131.904,332.658 133.718,332.373C135.531,332.088 134.607,327.679 132.005,320.012C130.092,314.375 124.581,315.496 124.016,316.228C123.45,316.96 123.067,319.249 126.677,325.567Z" style="fill:rgb(243,199,54);"/>
                    <path id="path2261" d="M160.765,319.577C166.102,311.999 168.389,310.908 172.833,314.163C174.774,315.585 177.448,320.622 171.252,327.477C164.859,334.555 161.965,334.757 160.193,333.326C158.422,331.895 155.18,326.216 160.765,319.577Z" style="fill:rgb(243,199,54);"/>
                </g>
                <g id="rect2303" transform="matrix(-0.5,0.866025,-0.866025,-0.5,0,0)">
                    <rect x="65.018" y="-392.386" width="25" height="300" style="fill:rgb(243,199,54);"/>
                </g>
            </g>
        </g>
    </g>
</svg>
