<svg xmlns:dc="http://purl.org/dc/elements/1.1/" xmlns:cc="http://creativecommons.org/ns#" xmlns:rdf="http://www.w3.org/1999/02/22-rdf-syntax-ns#" xmlns:svg="http://www.w3.org/2000/svg" xmlns="http://www.w3.org/2000/svg" xmlns:sodipodi="http://sodipodi.sourceforge.net/DTD/sodipodi-0.dtd" xmlns:inkscape="http://www.inkscape.org/namespaces/inkscape" viewBox="0 0 16.933333 21.1666675" version="1.1" x="0px" y="0px"><g transform="translate(0,-280.06665)"><path d="m 3.873534,290.35364 c -0.148166,0 -0.275165,0.127 -0.275165,0.27516 v 2.07432 c 0,0.16933 0.126999,0.27516 0.275165,0.27516 h 1.672154 c 0.148166,0 0.275165,-0.10583 0.275165,-0.27516 v -2.07432 c 0,-0.14816 -0.126999,-0.27516 -0.275165,-0.27516 z" style="" fill="#000000" fill-opacity="1" fill-rule="nonzero" stroke="none"/><path d="m 6.371182,288.25815 c -0.148165,0 -0.275164,0.127 -0.275164,0.27517 v 4.1698 c 0,0.16933 0.126999,0.27516 0.275164,0.27516 h 1.672155 c 0.148165,0 0.275164,-0.10583 0.275164,-0.27516 v -4.1698 c 0,-0.14817 -0.126999,-0.27517 -0.275164,-0.27517 z" style="" fill="#000000" fill-opacity="1" fill-rule="nonzero" stroke="none"/><path d="m 8.889997,286.18383 c -0.148166,0 -0.275165,0.10584 -0.275165,0.254 v 6.26529 c 0,0.16933 0.126999,0.27516 0.275165,0.27516 h 1.672154 c 0.148166,0 0.253998,-0.10583 0.253998,-0.27516 v -6.26529 c 0,-0.14816 -0.105832,-0.254 -0.253998,-0.254 z m 0.253998,0.52917 h 1.142992 v 5.73612 H 9.143995 Z" style="" fill="#000000" fill-opacity="1" fill-rule="nonzero" stroke="none"/><path d="m 11.387645,284.08835 c -0.148166,0 -0.275165,0.127 -0.275165,0.27516 v 8.33961 c 0,0.16933 0.126999,0.27516 0.275165,0.27516 h 1.672154 c 0.148166,0 0.275165,-0.10583 0.275165,-0.27516 v -8.33961 c 0,-0.14816 -0.126999,-0.27516 -0.275165,-0.27516 z m 0.275165,0.55033 h 1.121825 v 7.81044 H 11.66281 Z" style="" fill="#000000" fill-opacity="1" fill-rule="nonzero" stroke="none"/></g><text x="0" y="31.933334" fill="#000000" font-size="5px" font-weight="bold" font-family="'Helvetica Neue', Helvetica, Arial-Unicode, Arial, Sans-serif">Created by achmad</text><text x="0" y="36.933334" fill="#000000" font-size="5px" font-weight="bold" font-family="'Helvetica Neue', Helvetica, Arial-Unicode, Arial, Sans-serif">from the Noun Project</text></svg>